# xmcd
#
# Track frame offsets:
#	150
#	21483
#	42703
#	61920
#	82464
#	103793
#	126587
#	146276
#	163036
#	180779
#	199747
#	218322
#
# Disc length: 3121 seconds
#
# Revision: 2478535627
# Processed by: cddbd v1.5.2PL0 Copyright (c) Steve Scherf et al.
# Submitted via: EZCDAudioConverter 8.0.2.1
#
DISCID=ad0c2f0c
DTITLE=The Men - Vol 03. The Men
DYEAR=2011
DGENRE=Indie - Alternative
TTITLE0=The Men - Chỉ vì anh quá yêu em
TTITLE1=The Men - Điều hạnh phúc nhất
TTITLE2=The Men - Gọi tên em trong đêm
TTITLE3=The Men - Vẫn còn yêu
TTITLE4=The Men, Lam Trang - Quá yêu
TTITLE5=The Men - Ừ thôi mình chia tay
TTITLE6=The Men - Đêm nay anh nhớ em
TTITLE7=The Men - Vì anh vô tình
TTITLE8=The Men - Hiện tại and Quá khứ
TTITLE9=The Men - Nhớ
TTITLE10=The Men - Vụt tan
TTITLE11=The Men - Quay về làm chi
EXTD=
EXTT0=
EXTT1=
EXTT2=
EXTT3=
EXTT4=
EXTT5=
EXTT6=
EXTT7=
EXTT8=
EXTT9=
EXTT10=
EXTT11=
PLAYORDER=
